<?xml version="1.0" standalone="no"?>
<!DOCTYPE svg PUBLIC "-//W3C//DTD SVG 20010904//EN"
 "http://www.w3.org/TR/2001/REC-SVG-20010904/DTD/svg10.dtd">
<svg version="1.0" xmlns="http://www.w3.org/2000/svg"
 width="512.000000pt" height="512.000000pt" viewBox="0 0 512.000000 512.000000"
 preserveAspectRatio="xMidYMid meet">
<metadata>
Created by potrace 1.14, written by Peter Selinger 2001-2017
</metadata>
<g transform="translate(0.000000,512.000000) scale(0.100000,-0.100000)"
fill="#000000" stroke="none">
<path d="M1377 4603 c-2 -5 -3 -165 -2 -358 1 -192 -2 -354 -6 -360 -4 -6 -77
-10 -187 -9 l-179 1 -1 -361 c0 -199 -1 -364 -1 -368 -1 -4 -83 -9 -183 -10
l-183 -3 -1 -170 c-1 -93 -2 -175 -3 -181 -1 -8 -54 -11 -172 -10 -94 1 -175
-2 -180 -5 -11 -6 -17 -338 -7 -355 7 -10 706 -12 723 -2 6 4 10 74 9 182 l-1
176 31 1 c38 1 293 1 321 0 20 -1 21 -7 21 -178 -1 -131 -4 -179 -13 -183 -7
-3 -90 -5 -186 -4 l-174 1 0 -918 c0 -833 2 -919 16 -923 25 -7 721 -5 722 3
1 3 2 749 3 1656 l1 1650 180 0 180 1 3 367 2 367 -364 0 c-201 0 -367 -3
-369 -7z"/>
<path d="M2849 4598 c0 -7 -2 -89 -2 -183 l-2 -170 -182 0 -183 0 -1 -80 c-2
-119 1 -278 6 -284 1 -3 84 -6 182 -6 l180 1 -1 -368 0 -368 -368 0 -368 0 0
-183 0 -184 369 1 368 1 -1 -370 -1 -370 -355 -2 c-195 -1 -361 -2 -368 -2
-10 -1 -12 -41 -10 -183 l3 -183 365 0 365 0 1 -368 1 -367 -369 0 -368 0 0
-184 0 -184 1290 0 1290 0 0 184 0 184 -554 0 -555 0 0 364 c0 332 2 364 17
368 9 2 176 4 370 3 306 0 352 2 353 15 4 78 3 334 -3 343 -4 7 -123 10 -372
10 l-365 0 0 369 c1 334 3 368 18 369 9 0 258 1 554 1 l537 1 0 183 0 184
-132 0 c-73 1 -323 1 -555 0 l-421 0 1 367 2 368 360 1 c199 0 365 3 370 6 12
7 12 344 1 356 -4 4 -170 7 -369 7 l-362 0 0 183 0 182 -367 0 c-287 0 -368
-3 -369 -12z"/>
</g>
</svg>
