<?xml version="1.0" standalone="no"?><!DOCTYPE svg PUBLIC "-//W3C//DTD SVG 1.1//EN" "http://www.w3.org/Graphics/SVG/1.1/DTD/svg11.dtd"><svg t="1712675753211" class="icon" viewBox="0 0 1024 1024" version="1.1" xmlns="http://www.w3.org/2000/svg" p-id="14514" xmlns:xlink="http://www.w3.org/1999/xlink" width="200" height="200"><path d="M768.44565 426.930509 768.44565 341.861018 853.514117 341.861018 853.514117 256.791527 938.584632 256.791527 938.584632 171.72306 1023.653099 171.72306 1023.653099 1.584078 853.514117 1.584078 853.514117 86.653569 768.44565 86.653569 768.44565 171.72306 683.376159 171.72306 683.376159 256.791527 598.307691 256.791527 598.307691 340.511277 426.818969 340.511277 426.818969 256.791527 341.749478 256.791527 341.749478 171.72306 256.679987 171.72306 256.679987 86.653569 171.610496 86.653569 171.610496 1.584078 1.471514 1.584078 1.471514 171.72306 86.541005 171.72306 86.541005 256.791527 171.610496 256.791527 171.610496 341.861018 256.679987 341.861018 256.679987 426.930509 340.398714 426.930509 340.398714 597.069491 255.55435 597.069491 255.55435 682.138982 170.485883 682.138982 170.485883 767.207449 85.416392 767.207449 85.416392 852.27694 0.346901 852.27694 0.346901 1022.415922 170.485883 1022.415922 170.485883 937.346431 255.55435 937.346431 255.55435 852.27694 340.623841 852.27694 340.623841 767.207449 425.694355 767.207449 425.694355 680.788218 597.184101 680.788218 597.184101 767.207449 682.252569 767.207449 682.252569 852.27694 767.321036 852.27694 767.321036 937.346431 852.391551 937.346431 852.391551 1022.415922 1022.529509 1022.415922 1022.529509 852.27694 937.458995 852.27694 937.458995 767.207449 852.391551 767.207449 852.391551 682.138982 767.321036 682.138982 767.321036 597.069491 680.675654 597.069491 680.675654 426.930509Z" fill="#000000" p-id="14515"></path></svg>